<svg width="157" height="136" viewBox="0 0 157 136" fill="none" xmlns="http://www.w3.org/2000/svg">
<path d="M78.5001 111.069L65.6764 130.567" stroke="white" stroke-width="0.5"/>
<path d="M65.6762 130.567L48.9387 117.441" stroke="white" stroke-width="0.5"/>
<path d="M78.5001 104.261H75.5046" stroke="white" stroke-width="0.5"/>
<path d="M75.5044 104.261L72.5745 98.8911" stroke="white" stroke-width="0.5"/>
<path d="M72.5747 98.8914L65.6107 96.2009" stroke="white" stroke-width="0.5"/>
<path d="M65.6107 96.2008V91.7349" stroke="white" stroke-width="0.5"/>
<path d="M65.6107 91.735L73.0229 86.365" stroke="white" stroke-width="0.5"/>
<path d="M73.0229 86.365H78.5001" stroke="white" stroke-width="0.5"/>
<path d="M48.9387 117.441L75.5045 104.261" stroke="white" stroke-width="0.5"/>
<path d="M48.9387 117.441L52.1529 100.449" stroke="white" stroke-width="0.5"/>
<path d="M52.1528 100.449L58.0017 93.7393" stroke="white" stroke-width="0.5"/>
<path d="M58.0017 93.7391L65.6107 91.7349" stroke="white" stroke-width="0.5"/>
<path d="M58.0017 93.7391L69.9071 80.0581" stroke="white" stroke-width="0.5"/>
<path d="M69.9071 80.0581H78.5" stroke="white" stroke-width="0.5"/>
<path d="M52.1528 100.449L43.4615 98.9678" stroke="white" stroke-width="0.5"/>
<path d="M43.4615 98.9678L42.0731 116.962" stroke="white" stroke-width="0.5"/>
<path d="M42.0731 116.962L48.9387 117.441" stroke="white" stroke-width="0.5"/>
<path d="M65.6763 130.567L54.7002 135" stroke="white" stroke-width="0.5"/>
<path d="M54.7002 135L42.1826 129.793" stroke="white" stroke-width="0.5"/>
<path d="M42.1824 129.794L42.0731 116.962" stroke="white" stroke-width="0.5"/>
<path d="M43.4615 98.9675L28.6809 71.856" stroke="white" stroke-width="0.5"/>
<path d="M69.9071 80.0582L54.875 67.5862" stroke="white" stroke-width="0.5"/>
<path d="M54.875 67.5862L28.6809 71.8561" stroke="white" stroke-width="0.5"/>
<path d="M42.1279 96.5275L47.2443 89.5454" stroke="white" stroke-width="0.5"/>
<path d="M58.1547 83.7398L69.907 80.0581" stroke="white" stroke-width="0.5"/>
<path d="M58.3296 82.0188L58.1328 83.827" stroke="white" stroke-width="0.5"/>
<path d="M58.1328 83.8269L57.5315 85.5261" stroke="white" stroke-width="0.5"/>
<path d="M57.5316 85.5261L56.5696 87.062" stroke="white" stroke-width="0.5"/>
<path d="M56.5697 87.062L55.2797 88.3473" stroke="white" stroke-width="0.5"/>
<path d="M55.2794 88.3474L53.7379 89.306" stroke="white" stroke-width="0.5"/>
<path d="M53.7379 89.3059L52.0325 89.905" stroke="white" stroke-width="0.5"/>
<path d="M52.0326 89.905L50.2178 90.112" stroke="white" stroke-width="0.5"/>
<path d="M50.2179 90.112L48.4141 89.905" stroke="white" stroke-width="0.5"/>
<path d="M48.4139 89.905L46.6975 89.3059" stroke="white" stroke-width="0.5"/>
<path d="M46.6976 89.306L45.1671 88.3474" stroke="white" stroke-width="0.5"/>
<path d="M45.167 88.3473L43.877 87.062" stroke="white" stroke-width="0.5"/>
<path d="M43.8771 87.062L42.915 85.5261" stroke="white" stroke-width="0.5"/>
<path d="M42.9149 85.5261L42.3136 83.8269" stroke="white" stroke-width="0.5"/>
<path d="M42.3137 83.827L42.106 82.0188" stroke="white" stroke-width="0.5"/>
<path d="M42.106 82.0187L42.3137 80.2214" stroke="white" stroke-width="0.5"/>
<path d="M42.3136 80.2217L42.9149 78.5225" stroke="white" stroke-width="0.5"/>
<path d="M42.915 78.5222L43.8771 76.9863" stroke="white" stroke-width="0.5"/>
<path d="M43.877 76.9865L45.167 75.7012" stroke="white" stroke-width="0.5"/>
<path d="M45.1671 75.701L46.6976 74.7424" stroke="white" stroke-width="0.5"/>
<path d="M46.6975 74.7427L48.4139 74.1436" stroke="white" stroke-width="0.5"/>
<path d="M48.4141 74.1437L50.2179 73.9368" stroke="white" stroke-width="0.5"/>
<path d="M50.2178 73.9368L52.0326 74.1437" stroke="white" stroke-width="0.5"/>
<path d="M52.0325 74.1436L53.7379 74.7427" stroke="white" stroke-width="0.5"/>
<path d="M53.7379 74.7424L55.2794 75.701" stroke="white" stroke-width="0.5"/>
<path d="M55.2797 75.7012L56.5697 76.9865" stroke="white" stroke-width="0.5"/>
<path d="M56.5696 76.9863L57.5316 78.5222" stroke="white" stroke-width="0.5"/>
<path d="M57.5315 78.5225L58.1328 80.2217" stroke="white" stroke-width="0.5"/>
<path d="M58.1328 80.2214L58.3296 82.0187" stroke="white" stroke-width="0.5"/>
<path d="M42.0731 116.962L30.3098 106.004" stroke="white" stroke-width="0.5"/>
<path d="M30.3098 106.004L28.6809 71.856" stroke="white" stroke-width="0.5"/>
<path d="M69.9071 80.058L59.5541 53.5347" stroke="white" stroke-width="0.5"/>
<path d="M59.5541 53.5349L32.2559 47.4678" stroke="white" stroke-width="0.5"/>
<path d="M32.2558 47.4678L28.6809 71.8562" stroke="white" stroke-width="0.5"/>
<path d="M59.5541 53.5348L78.5 38.1218" stroke="white" stroke-width="0.5"/>
<path d="M32.2559 47.4676L54.1972 35.0283" stroke="white" stroke-width="0.5"/>
<path d="M54.1973 35.0283L78.5 38.1218" stroke="white" stroke-width="0.5"/>
<path d="M28.6811 71.8562L13.2008 58.0989" stroke="white" stroke-width="0.5"/>
<path d="M13.2007 58.0989L7.63611 30.5952" stroke="white" stroke-width="0.5"/>
<path d="M7.63599 30.5953L1 22.4041" stroke="white" stroke-width="0.5"/>
<path d="M1 22.4038L6.83791 1" stroke="white" stroke-width="0.5"/>
<path d="M6.83801 1L30.0694 2.97155" stroke="white" stroke-width="0.5"/>
<path d="M30.0693 2.97168L52.448 15.106" stroke="white" stroke-width="0.5"/>
<path d="M52.448 15.1057L54.1972 35.0282" stroke="white" stroke-width="0.5"/>
<path d="M78.5 111.069L91.3237 130.567" stroke="white" stroke-width="0.5"/>
<path d="M91.3237 130.567L108.061 117.441" stroke="white" stroke-width="0.5"/>
<path d="M78.5 104.261H81.5064" stroke="white" stroke-width="0.5"/>
<path d="M81.5065 104.261L84.4254 98.8911" stroke="white" stroke-width="0.5"/>
<path d="M84.4253 98.8914L91.3893 96.2009" stroke="white" stroke-width="0.5"/>
<path d="M91.3892 96.2008V91.7349" stroke="white" stroke-width="0.5"/>
<path d="M91.3894 91.735L83.9772 86.365" stroke="white" stroke-width="0.5"/>
<path d="M83.9771 86.365H78.5" stroke="white" stroke-width="0.5"/>
<path d="M108.061 117.441L81.5065 104.261" stroke="white" stroke-width="0.5"/>
<path d="M108.061 117.441L104.847 100.449" stroke="white" stroke-width="0.5"/>
<path d="M104.847 100.449L99.0093 93.7393" stroke="white" stroke-width="0.5"/>
<path d="M99.0091 93.7391L91.3892 91.7349" stroke="white" stroke-width="0.5"/>
<path d="M99.0091 93.7391L87.0928 80.0581" stroke="white" stroke-width="0.5"/>
<path d="M87.0929 80.0581H78.5" stroke="white" stroke-width="0.5"/>
<path d="M104.847 100.449L113.538 98.9678" stroke="white" stroke-width="0.5"/>
<path d="M113.538 98.9678L114.927 116.962" stroke="white" stroke-width="0.5"/>
<path d="M114.927 116.962L108.061 117.441" stroke="white" stroke-width="0.5"/>
<path d="M91.3237 130.567L102.3 135" stroke="white" stroke-width="0.5"/>
<path d="M102.3 135L114.818 129.793" stroke="white" stroke-width="0.5"/>
<path d="M114.818 129.794L114.927 116.962" stroke="white" stroke-width="0.5"/>
<path d="M113.538 98.9675L128.319 71.856" stroke="white" stroke-width="0.5"/>
<path d="M87.0928 80.0582L102.125 67.5862" stroke="white" stroke-width="0.5"/>
<path d="M102.125 67.5862L128.319 71.8561" stroke="white" stroke-width="0.5"/>
<path d="M114.872 96.5275L109.756 89.5454" stroke="white" stroke-width="0.5"/>
<path d="M98.8561 83.7398L87.0928 80.0581" stroke="white" stroke-width="0.5"/>
<path d="M114.894 82.0188L114.686 83.827" stroke="white" stroke-width="0.5"/>
<path d="M114.686 83.8269L114.085 85.5261" stroke="white" stroke-width="0.5"/>
<path d="M114.085 85.5261L113.123 87.062" stroke="white" stroke-width="0.5"/>
<path d="M113.123 87.062L111.833 88.3473" stroke="white" stroke-width="0.5"/>
<path d="M111.833 88.3474L110.302 89.306" stroke="white" stroke-width="0.5"/>
<path d="M110.302 89.3059L108.586 89.905" stroke="white" stroke-width="0.5"/>
<path d="M108.586 89.905L106.782 90.112" stroke="white" stroke-width="0.5"/>
<path d="M106.782 90.112L104.978 89.905" stroke="white" stroke-width="0.5"/>
<path d="M104.978 89.905L103.262 89.3059" stroke="white" stroke-width="0.5"/>
<path d="M103.262 89.306L101.72 88.3474" stroke="white" stroke-width="0.5"/>
<path d="M101.72 88.3473L100.441 87.062" stroke="white" stroke-width="0.5"/>
<path d="M100.441 87.062L99.4684 85.5261" stroke="white" stroke-width="0.5"/>
<path d="M99.4684 85.5261L98.8671 83.8269" stroke="white" stroke-width="0.5"/>
<path d="M98.8671 83.827L98.6703 82.0188" stroke="white" stroke-width="0.5"/>
<path d="M98.6703 82.0187L98.8671 80.2214" stroke="white" stroke-width="0.5"/>
<path d="M98.8671 80.2217L99.4684 78.5225" stroke="white" stroke-width="0.5"/>
<path d="M99.4684 78.5222L100.441 76.9863" stroke="white" stroke-width="0.5"/>
<path d="M100.441 76.9865L101.72 75.7012" stroke="white" stroke-width="0.5"/>
<path d="M101.72 75.701L103.262 74.7424" stroke="white" stroke-width="0.5"/>
<path d="M103.262 74.7427L104.978 74.1436" stroke="white" stroke-width="0.5"/>
<path d="M104.978 74.1437L106.782 73.9368" stroke="white" stroke-width="0.5"/>
<path d="M106.782 73.9368L108.586 74.1437" stroke="white" stroke-width="0.5"/>
<path d="M108.586 74.1436L110.302 74.7427" stroke="white" stroke-width="0.5"/>
<path d="M110.302 74.7424L111.833 75.701" stroke="white" stroke-width="0.5"/>
<path d="M111.833 75.7012L113.123 76.9865" stroke="white" stroke-width="0.5"/>
<path d="M113.123 76.9863L114.085 78.5222" stroke="white" stroke-width="0.5"/>
<path d="M114.085 78.5225L114.686 80.2217" stroke="white" stroke-width="0.5"/>
<path d="M114.686 80.2214L114.894 82.0187" stroke="white" stroke-width="0.5"/>
<path d="M114.927 116.962L126.69 106.004" stroke="white" stroke-width="0.5"/>
<path d="M126.69 106.004L128.319 71.856" stroke="white" stroke-width="0.5"/>
<path d="M87.0928 80.058L97.4458 53.5347" stroke="white" stroke-width="0.5"/>
<path d="M97.4458 53.5349L124.744 47.4678" stroke="white" stroke-width="0.5"/>
<path d="M124.744 47.4678L128.319 71.8562" stroke="white" stroke-width="0.5"/>
<path d="M97.4459 53.5348L78.5 38.1218" stroke="white" stroke-width="0.5"/>
<path d="M124.744 47.4676L102.814 35.0283" stroke="white" stroke-width="0.5"/>
<path d="M102.814 35.0283L78.5 38.1218" stroke="white" stroke-width="0.5"/>
<path d="M128.319 71.8562L143.799 58.0989" stroke="white" stroke-width="0.5"/>
<path d="M143.799 58.0989L149.364 30.5952" stroke="white" stroke-width="0.5"/>
<path d="M149.364 30.5953L156 22.4041" stroke="white" stroke-width="0.5"/>
<path d="M156 22.4038L150.162 1" stroke="white" stroke-width="0.5"/>
<path d="M150.162 1L126.93 2.97155" stroke="white" stroke-width="0.5"/>
<path d="M126.93 2.97168L104.552 15.106" stroke="white" stroke-width="0.5"/>
<path d="M104.552 15.1057L102.814 35.0282" stroke="white" stroke-width="0.5"/>
<path d="M72.4982 120.186L74.4004 125.927" stroke="white" stroke-width="0.5"/>
<path d="M74.4004 125.927H78.5001" stroke="white" stroke-width="0.5"/>
<path d="M84.5019 120.186L82.6106 125.927" stroke="white" stroke-width="0.5"/>
<path d="M82.6106 125.927H78.5" stroke="white" stroke-width="0.5"/>
<path d="M78.5 111.069V104.261" stroke="white" stroke-width="0.5"/>
</svg>